<svg width="1985" height="397" viewBox="0 0 1985 397" fill="none" xmlns="http://www.w3.org/2000/svg">
<path d="M582.093 246.625C582.093 326.576 530.904 367.335 434.912 367.335C338.923 367.335 287.734 326.576 287.734 246.625V38.1328H373.669V225.09C373.669 279.172 392.866 294.859 434.912 294.859C476.959 294.859 496.158 279.186 496.158 225.09V38.1328H582.093V246.625Z" fill="#1C7779"/>
<path d="M872.655 33.3547V101.185C872.655 101.185 806.983 99.3049 768.131 99.3049C738.878 99.3049 723.333 110.672 723.333 128.313C723.333 145.956 758.989 159.276 801.948 174.949C843.994 190.238 890.165 220.801 890.165 263.13C890.165 340.343 821.604 367.382 748.005 367.382C659.791 367.382 635.953 361.701 635.953 361.701V300.144C635.953 300.144 699.556 299.183 741.617 299.183C760.358 299.183 796.017 297.614 796.017 267.437C796.017 243.918 755.795 233.336 710.994 214.14C665.739 194.93 639.239 164.752 639.239 131.051C639.239 70.696 701.412 32.2891 762.2 32.2891C830.76 32.2891 872.655 33.3547 872.655 33.3547Z" fill="#1C7779"/>
<path d="M1211.49 33.3906H872.648V101.22H1211.49V33.3906Z" fill="#014D4D"/>
<path d="M1098.52 80.0859H978.516V379.066H1098.52V80.0859Z" fill="#014D4D"/>
<path d="M1368.86 33.3906H1248.85V378.994H1368.86V33.3906Z" fill="#014D4D"/>
<path d="M1473.41 33.3906H1602.82L1473.41 184.087L1602.82 369.728H1461.63L1353.4 192.82L1473.41 33.3906Z" fill="#014D4D"/>
<path d="M1982.81 31.0234H1643.97V98.853H1982.81V31.0234Z" fill="#014D4D"/>
<path d="M1869.84 77.7109H1749.83V376.691H1869.84V77.7109Z" fill="#014D4D"/>
<path d="M0.375 20.8047H120.971C141.025 20.8047 159.572 23.481 176.609 28.8338C193.825 34.1866 207.668 42.9929 218.139 55.2523C228.788 67.3395 234.112 83.7429 234.112 104.463C234.112 118.105 231.45 130.278 226.126 140.983C220.979 151.688 214.058 160.494 205.361 167.402C196.842 174.136 187.524 178.625 177.408 180.87C186.281 181.906 194.89 184.41 203.231 188.381C211.75 192.18 219.382 197.532 226.126 204.439C233.047 211.174 238.46 219.635 242.365 229.822C246.447 239.837 248.487 251.752 248.487 265.565C248.487 284.73 244.051 301.652 235.177 316.329C226.48 330.835 213.702 342.231 196.842 350.519C180.159 358.633 159.66 362.692 135.346 362.692H0.375V20.8047ZM79.9733 300.789H116.179C127.538 300.789 136.765 299.15 143.865 295.868C151.141 292.415 156.465 287.58 159.838 281.364C163.211 274.975 164.896 267.378 164.896 258.571C164.896 244.758 160.459 234.657 151.585 228.268C142.889 221.707 130.643 218.426 114.848 218.426H79.9733V300.789ZM79.9733 157.818H112.185C121.591 157.818 129.401 156.179 135.612 152.898C142.001 149.616 146.793 145.041 149.988 139.17C153.361 133.127 155.046 126.22 155.046 118.45C155.046 104.463 150.965 95.0529 142.8 90.2181C134.636 85.2108 123.455 82.7069 109.257 82.7069H79.9733V157.818Z" fill="#1C7779"/>
</svg>
